<svg xmlns="http://www.w3.org/2000/svg" viewBox="0 0 440.18 450.67"><defs><style>.cls-1{isolation:isolate;}.cls-2{fill:#e8e8e8;}.cls-3{fill:#f1f2f2;mix-blend-mode:multiply;}.cls-4{fill:#f5f5f5;}.cls-5{fill:#533e29;}.cls-6{fill:#fddcbe;}.cls-7{fill:#eb7d86;}.cls-8{fill:#e6e6e6;}</style></defs><title>angel</title><g class="cls-1"><g id="Layer_1" data-name="Layer 1"><path class="cls-2" d="M262.26,267.85c43.46-.58,60.68-152.94-20.2-223.69-54.54-47.71-82.93,9.94-39.36,56.3-36-20.17-60.9,32.26-19.62,55.73C151,140.86,142.9,182,165.63,213.79,183.21,238.4,235.47,268.21,262.26,267.85Z" transform="translate(-13.79 -26.27)"/><path class="cls-3" d="M286.05,110.57c-16.32,6.92-20.66,18.67-20.66,18.67-55.87-17-45.18,124.47-45.18,124.47h-.05l-2.85.14c16.5,8.49,33.18,14.15,44.95,14C294.6,267.43,312.4,182.93,286.05,110.57Z" transform="translate(-13.79 -26.27)"/><path class="cls-4" d="M241.7,266.18C278.44,243,213.44,104.09,107.51,86.08,36.08,73.93,42,137.92,103.4,154.65c-41.25,1.65-35,59.35,12.42,57.76-35.34,3.68-20.76,43,15.25,58.22C158.92,282.41,219,280.49,241.7,266.18Z" transform="translate(-13.79 -26.27)"/><path class="cls-3" d="M241.7,266.18c19.2-12.13,10.61-55.82-17.06-97.36-8.06,36.74-4.43,84.89-4.43,84.89h-.05L215,254l-.87,0c-44,2.4-72.52,7.88-90.83,12.77a74.52,74.52,0,0,0,7.78,3.84c8.5,3.59,20,5.91,32.53,7a309.06,309.06,0,0,1,38-4.56h0c7.64-.42,13.3-.42,16.44-.35l-.24,2.06C227.46,272.75,235.84,269.88,241.7,266.18Z" transform="translate(-13.79 -26.27)"/><path class="cls-5" d="M105.38,312l12-4.85-15.34-33.53-9.95,5.59L78.86,246.31l-65.07,28L51.92,369,119,345.67Zm-5.59-30.44,9.79,23.55-6.06,2.28-9.6-23.78Z" transform="translate(-13.79 -26.27)"/><path class="cls-6" d="M99.48,284.89c.49,1.9,2.7,2.09,4.18,1.75-1.43.19-3.86.86-3.48,3.25.43,2.76,4,2.75,5.25,2.66v0c-1.16.22-4.22,1-3.82,3.36s3.61,2.06,4.84,1.87c-1.33.27-4.76,1.22-4.17,4,.44,2.08,5.1.77,5.1.77,65.05-27.07,121.74-23.77,121.74-23.77l-.63-19.09c-86.62,4-116.29,19.89-124.75,22.09C103.74,281.82,99.1,283,99.48,284.89Z" transform="translate(-13.79 -26.27)"/><path class="cls-4" d="M228.49,259.73c-7.62.35-14.77.8-21.53,1.33l2.92,18a189.88,189.88,0,0,1,19.24-.26Z" transform="translate(-13.79 -26.27)"/><path class="cls-5" d="M218.11,350.42l-9,35.58-21.63,37.4s20.71,47.39,27,24c5.81-21.61-18.43-24.94-18.43-24.94l25.2-34.21,10.91-22.54s49.64,20.28,96.61,22.43L321,415.73l-23,30s12.83,48.56,22.64,24.56c7-14.46-15.46-23.34-15.46-23.34l27.17-27.4,15-39.78Z" transform="translate(-13.79 -26.27)"/><path class="cls-4" d="M370.61,290.72l-23.15,89s-56.26-2.29-129.35-29.32l10.38-90.7S310.67,295.11,370.61,290.72Z" transform="translate(-13.79 -26.27)"/><path class="cls-6" d="M370.61,290.72S423.46,140,293,161c0,0-45.21,21.93-64.47,98.68C330.17,305.47,370.61,290.72,370.61,290.72Z" transform="translate(-13.79 -26.27)"/><path class="cls-5" d="M401.6,115.81s38,110.71-114.59,65.31l-9.89,32.67s-9.51-15.89-16.62-3.15,11,12.25,11,12.25-23.74,31.88-43,36.83c0,0-10.69-141.49,45.18-124.47,0,0,7.75-21,41.56-23.39C363.46,108.47,370.93,162.29,401.6,115.81Z" transform="translate(-13.79 -26.27)"/><path class="cls-5" d="M363.43,227.68c-.63,5.49,1,10.19,3.58,10.5s5.23-3.9,5.85-9.39-1-10.19-3.58-10.5S364.06,222.19,363.43,227.68Z" transform="translate(-13.79 -26.27)"/><path class="cls-5" d="M296.81,222.39c-.63,5.49,1,10.2,3.58,10.5s5.23-3.91,5.85-9.4-1-10.2-3.58-10.5S297.44,216.89,296.81,222.39Z" transform="translate(-13.79 -26.27)"/><path class="cls-7" d="M352.19,255.07s-26.29-6.59-43.59-4.92c0,0-6.14,21.24,19.21,24.85C352.91,278.56,352.19,255.07,352.19,255.07Z" transform="translate(-13.79 -26.27)"/><path class="cls-8" d="M342.07,302.83l1.88,6.4-5.72,5.87s-15.65,42.15-68.32,28.53l-8.78-17.8,17.4-6.93C318.15,339.67,329.6,314,329.6,314l-3.55-8.2,3.64-4.15Z" transform="translate(-13.79 -26.27)"/><path class="cls-5" d="M342.07,302.83l1.88,6.4-5.72,5.87s-14.09,38.4-66.75,24.78l-8.78-17.8,17.4-6.93C319.71,335.92,329.6,314,329.6,314l-3.55-8.2,3.64-4.15Z" transform="translate(-13.79 -26.27)"/><path class="cls-6" d="M452.47,241.91c-2-.1-2.87,2-3.25,3.36.24-1.42.32-3.94-2.08-4.29-2.76-.4-3.81,3-4.09,4.23h0c.13-1.18.26-4.34-2.08-4.65s-3,2.84-3.22,4.07c.14-1.35.24-4.91-2.58-5.16-2.12-.19-2.24,4.64-2.24,4.64-2.57,84.21-62.29,46.61-62.29,46.61l-4.25,16.35c83,39.09,87-51.56,87.45-60.29C453.81,246.78,454.66,242,452.47,241.91Z" transform="translate(-13.79 -26.27)"/><path class="cls-4" d="M370.61,290.72l-4.25,16.35a127.81,127.81,0,0,0,12.11,5l3.86-15.92A63.31,63.31,0,0,1,370.61,290.72Z" transform="translate(-13.79 -26.27)"/><path class="cls-6" d="M103.06,286.74a5.39,5.39,0,0,0,.6-.1Z" transform="translate(-13.79 -26.27)"/></g></g></svg>