<svg xmlns="http://www.w3.org/2000/svg" viewBox="0 0 451.75 693.51"><defs><style>.cls-1{isolation:isolate;}.cls-2{fill:#bcd6c7;}.cls-3{fill:#ffca4d;}.cls-10,.cls-4{mix-blend-mode:multiply;}.cls-5{fill:#d1d3d4;}.cls-6{fill:#f1f2f2;}.cls-7{fill:#e0e0e0;}.cls-8{fill:#f5f5f5;}.cls-9{fill:#fddcbe;}.cls-10,.cls-12{fill:#f2f2f2;}.cls-11{fill:#574939;}.cls-13{fill:#eb7d86;}</style></defs><title>entrepreneur</title><g class="cls-1"><g id="Layer_1" data-name="Layer 1"><path class="cls-2" d="M469,305.85l-.37,0-47.15-4a4.41,4.41,0,1,1,.74-8.79l47.15,4a4.41,4.41,0,0,1-.36,8.8Z" transform="translate(-21.63 -55.73)"/><path class="cls-2" d="M411.62,226.31a4.41,4.41,0,0,1-1.52-8.55l44.4-16.33a4.41,4.41,0,1,1,3,8.28L413.14,226A4.41,4.41,0,0,1,411.62,226.31Z" transform="translate(-21.63 -55.73)"/><path class="cls-2" d="M370.42,162.12a4.41,4.41,0,0,1-3.13-7.52L400.64,121a4.41,4.41,0,1,1,6.26,6.21l-33.34,33.57A4.39,4.39,0,0,1,370.42,162.12Z" transform="translate(-21.63 -55.73)"/><path class="cls-2" d="M306,121.36a4.41,4.41,0,0,1-4.15-5.9l16-44.51a4.41,4.41,0,0,1,8.3,3l-16,44.51A4.41,4.41,0,0,1,306,121.36Z" transform="translate(-21.63 -55.73)"/><path class="cls-2" d="M230.32,111.66a4.41,4.41,0,0,1-4.39-4l-4.28-47.12a4.41,4.41,0,1,1,8.78-.8l4.28,47.12a4.41,4.41,0,0,1-4,4.79Z" transform="translate(-21.63 -55.73)"/><path class="cls-2" d="M157.67,134.84a4.41,4.41,0,0,1-3.81-2.19L130.06,91.75a4.41,4.41,0,0,1,7.62-4.43l23.79,40.89a4.41,4.41,0,0,1-3.81,6.63Z" transform="translate(-21.63 -55.73)"/><path class="cls-2" d="M101.61,186.55a4.39,4.39,0,0,1-2.51-.79l-38.85-27a4.41,4.41,0,0,1,5-7.24l38.85,27a4.41,4.41,0,0,1-2.52,8Z" transform="translate(-21.63 -55.73)"/><path class="cls-2" d="M72.67,257.11a4.44,4.44,0,0,1-.76-.06L25.29,249a4.41,4.41,0,1,1,1.5-8.69l46.62,8.06a4.41,4.41,0,0,1-.75,8.75Z" transform="translate(-21.63 -55.73)"/><path class="cls-2" d="M30.58,345.69A4.41,4.41,0,0,1,29.43,337l45.66-12.4a4.41,4.41,0,1,1,2.31,8.51l-45.66,12.4A4.4,4.4,0,0,1,30.58,345.69Z" transform="translate(-21.63 -55.73)"/><path class="cls-3" d="M375.53,270.77A129.81,129.81,0,1,0,181.14,395l2.07,22.39,55.23-5.1a131.33,131.33,0,0,0,39.26-3.63l55.17-5.1-2.06-22.35A129.65,129.65,0,0,0,375.53,270.77Z" transform="translate(-21.63 -55.73)"/><g class="cls-4"><path class="cls-5" d="M283.4,274.7c-.06-.19-.15-.37-.22-.55a6.55,6.55,0,0,0-.27-.66,6.63,6.63,0,0,0-.4-.62c-.11-.16-.2-.33-.32-.48a6.75,6.75,0,0,0-2-1.68c-.16-.08-.32-.14-.48-.21a4,4,0,0,0-1.37-.44c-.21,0-.42-.1-.63-.13a6.78,6.78,0,0,0-1.28,0h0a6.7,6.7,0,0,0-1.3.25c-.18.05-.35.14-.53.21a6.56,6.56,0,0,0-.69.28,6.65,6.65,0,0,0-.58.38c-.17.11-.35.21-.51.34a6.77,6.77,0,0,0-.95.93L262,284.12l-11.79-9.8a6.71,6.71,0,0,0-9.45.87L231,287l-11.78-9.79a6.74,6.74,0,0,0-1.11-.75c-.16-.09-.33-.14-.5-.21a4,4,0,0,0-1.38-.44c-.2,0-.4-.1-.61-.12a6.75,6.75,0,0,0-2.62.24c-.2.06-.38.15-.58.23a3.95,3.95,0,0,0-1.28.68c-.15.1-.31.19-.45.3a6.73,6.73,0,0,0-1.68,2c-.09.17-.15.35-.23.53a3.95,3.95,0,0,0-.43,1.38c0,.19-.09.38-.11.58a6.74,6.74,0,0,0,0,1.32h0l12.3,133.16a6.71,6.71,0,1,0,13.36-1.23l-10.81-117,4.49,3.73a6.71,6.71,0,0,0,9.45-.87l9.8-11.79,11.79,9.8a6.71,6.71,0,0,0,9.45-.87l3.73-4.49,10.81,117A6.71,6.71,0,1,0,296,409.15L283.66,276h0A6.75,6.75,0,0,0,283.4,274.7Z" transform="translate(-21.63 -55.73)"/></g><path class="cls-6" d="M335.58,433,185.93,446.8a14.76,14.76,0,0,1-2.72-29.4l149.66-13.82a14.76,14.76,0,0,1,2.72,29.4Z" transform="translate(-21.63 -55.73)"/><path class="cls-6" d="M338.3,462.37,188.64,476.2a14.76,14.76,0,0,1-2.72-29.4L335.58,433a14.76,14.76,0,0,1,2.72,29.4Z" transform="translate(-21.63 -55.73)"/><g class="cls-4"><path class="cls-7" d="M185.93,446.8,335.58,433a14.76,14.76,0,0,0,13.34-16.06L169.87,433.46A14.76,14.76,0,0,0,185.93,446.8Z" transform="translate(-21.63 -55.73)"/></g><g class="cls-4"><path class="cls-7" d="M188.64,476.2,338.3,462.37a14.76,14.76,0,0,0,13.34-16.06L172.59,462.86A14.76,14.76,0,0,0,188.64,476.2Z" transform="translate(-21.63 -55.73)"/></g><path class="cls-8" d="M346.38,568l-14.64-7s3.49-5.65,9.29-16.7l14,7.15C352.31,556.7,349.44,562.2,346.38,568Z" transform="translate(-21.63 -55.73)"/><path class="cls-9" d="M341,544.26c9.72-18.54,32.48-72.12,49.55-119.93,0,0,1.15-3.94,4.24-2.53,1.76.8.54,4.44.54,4.44s2.06-3.21,3.9-2.38,1,4.49,1,4.49,1.77-2.65,3.32-1.91.09,4.35.09,4.35,1.55-3.29,3.26-2.47c2.16,1,.08,5.47.08,5.47-3.09,6.55-20.12,56-52,117.61Z" transform="translate(-21.63 -55.73)"/><path class="cls-10" d="M341,544.26c3.25-6.2,8-16.32,13.42-28.83.79,6.75,2.14,19.68,2.54,32.18-.65,1.26-1.29,2.52-1.95,3.8-2.73,5.29-5.61,10.79-8.66,16.55l-14.64-7S335.24,555.31,341,544.26Z" transform="translate(-21.63 -55.73)"/><ellipse class="cls-10" cx="258.05" cy="682.34" rx="100.07" ry="11.17"/><path class="cls-9" d="M346.77,551.73s2.43-43.77-8.47-89.36L188.64,476.2c5.12,26.59,6.77,37.29,10.94,80.38C298.61,575.53,346.77,551.73,346.77,551.73Z" transform="translate(-21.63 -55.73)"/><path class="cls-11" d="M234.32,498.66l10-27.6-55.64,5.14c2.08,37,10.94,80.38,10.94,80.38,17.24-10.17,31.77-47,31.77-47s-17.31,5-14-9.31S234.32,498.66,234.32,498.66Z" transform="translate(-21.63 -55.73)"/><path class="cls-11" d="M211.67,644.55l-.88,42.53-5.95,50.8s52.12,14.09,39-6.47c-12.13-19-31.06-3.21-31.06-3.21l10.33-42.91,5.75-28.75s52.09,7.07,98.75-1l-2.35,24.17-8.76,52.61s48.24,16.19,34.89-6.24c-7.41-12.44-25.6-4.63-25.6-4.63l11.55-41.8,7.92-36.28Z" transform="translate(-21.63 -55.73)"/><path class="cls-8" d="M346.77,551.73l-1.53,91.63s-55.83,11.94-133.57,1.18l-12.08-88S289.47,571.23,346.77,551.73Z" transform="translate(-21.63 -55.73)"/><path class="cls-8" d="M201.68,570.6l12.71-10.08s-4.66-4.73-12.77-14.21l-12.07,10.09C193.39,560.94,197.42,565.66,201.68,570.6Z" transform="translate(-21.63 -55.73)"/><path class="cls-9" d="M201.63,546.3c-13.6-15.91-47.7-63.1-75-105.91,0,0-2-3.59-4.7-1.52-1.54,1.17.46,4.45.46,4.45s-2.72-2.68-4.33-1.45,0,4.61,0,4.61-2.32-2.19-3.66-1.12.88,4.26.88,4.26-2.24-2.87-3.72-1.69c-1.87,1.49,1.14,5.35,1.14,5.35,4.47,5.7,32.06,50.08,76.83,103.11Z" transform="translate(-21.63 -55.73)"/><polygon class="cls-12" points="292.5 510.34 295.25 515.42 291.48 521.43 294.51 575.85 279.58 587.12 267.7 574.02 283.97 522.1 279.46 515.8 281.79 511.62 292.5 510.34"/><polygon class="cls-11" points="292.5 510.34 295.25 515.42 291.48 521.43 297.72 575.04 282.79 586.31 270.9 573.22 283.97 522.1 279.46 515.8 281.79 511.62 292.5 510.34"/><path class="cls-13" d="M319.08,520.9s-27.26.31-43.65,6.36c0,0-.54,22.24,25,19.26C325.78,543.57,319.08,520.9,319.08,520.9Z" transform="translate(-21.63 -55.73)"/><ellipse class="cls-11" cx="261.27" cy="499.87" rx="5.06" ry="9.84" transform="translate(-78.56 -21.56) rotate(-6.75)"/><ellipse class="cls-11" cx="324.07" cy="492.44" rx="5.06" ry="9.84" transform="translate(-77.25 -14.23) rotate(-6.75)"/><path class="cls-10" d="M338.3,462.37l-94,8.68-55.64,5.14q.09,1.6.2,3.21l151.22-9.13C339.25,466,339.33,466.7,338.3,462.37Z" transform="translate(-21.63 -55.73)"/></g></g></svg>