<svg xmlns="http://www.w3.org/2000/svg" viewBox="0 0 396.96 586.83"><defs><style>.cls-1{isolation:isolate;}.cls-2{fill:#fddcbe;}.cls-3{fill:#f5f5f5;}.cls-4,.cls-7{mix-blend-mode:multiply;}.cls-5,.cls-7{fill:#e6e7e8;}.cls-6{fill:#b05033;}.cls-8{fill:#efa734;}.cls-9{fill:#533e29;}.cls-10{fill:#eb7d86;}</style></defs><title>serial-entrepreneur</title><g class="cls-1"><g id="Layer_1" data-name="Layer 1"><path class="cls-2" d="M412.6,81.75c-3.36-3.36-27.82,19.62-30.13,21.94-1.8,1.81-52.12,47.2-101.29,81.44l9.69,12.51c55.39-37.35,104-77.26,106.24-79,2.75-2.22,5.44-4.27,4.79-6.71a2,2,0,0,0-3.24-1.08c1.15-1.35,2.56-2.5,1.1-4.44a2.38,2.38,0,0,0-3.15-.16c1.73-1.75,2.76-3.66,2-5a3.31,3.31,0,0,0-4.22-1.14C395.77,98.52,414.93,84.08,412.6,81.75Z" transform="translate(-26.85 -9.16)"/><path class="cls-3" d="M281.18,185.13l9.69,12.51q8.9-6,17.5-12L299,172.28C293.11,176.66,287.14,181,281.18,185.13Z" transform="translate(-26.85 -9.16)"/><g class="cls-4"><path class="cls-5" d="M281.18,185.13l9.69,12.51q3.7-2.49,7.33-5l-3.91-16.89C289.94,178.95,285.55,182.08,281.18,185.13Z" transform="translate(-26.85 -9.16)"/></g><path class="cls-3" d="M132,460.5l35.24,43.34a15.81,15.81,0,0,0,12.44,5.88c51-.68,105.43-19.84,151.92-57.63C389.53,405,421.69,339.93,423.8,278.51A22.69,22.69,0,0,0,405,255.36c-60.55-10.48-130.83,7.72-188.74,54.81-46.48,37.79-76.35,87.17-87.43,137A15.81,15.81,0,0,0,132,460.5Z" transform="translate(-26.85 -9.16)"/><path class="cls-6" d="M191.13,510.52a55.34,55.34,0,0,1-1.87,72,7.54,7.54,0,0,0-.35,9.84l.7.86a7.47,7.47,0,0,0,9.24,1.94,148.48,148.48,0,0,0,77.9-108.47,239.29,239.29,0,0,1-86.63,22.65C190.46,509.73,190.8,510.11,191.13,510.52Z" transform="translate(-26.85 -9.16)"/><path class="cls-6" d="M130.35,435.8a55.34,55.34,0,0,0-70.85-12.86,7.54,7.54,0,0,1-9.71-1.66l-.7-.86a7.47,7.47,0,0,1,0-9.44,148.48,148.48,0,0,1,122.09-54.12A239.28,239.28,0,0,0,131.3,437C131,436.62,130.68,436.21,130.35,435.8Z" transform="translate(-26.85 -9.16)"/><path class="cls-6" d="M405.11,255.38c-26.5-4.6-54.87-3.7-83.24,2.7l82.29,101.22c12.06-26.48,18.73-54.06,19.64-80.94A22.58,22.58,0,0,0,405.11,255.38Z" transform="translate(-26.85 -9.16)"/><path class="cls-7" d="M334.3,266.66a3.12,3.12,0,0,1,.45-4.37,3.1,3.1,0,0,1,2.29-.67,3.21,3.21,0,0,1,2.77,3.4,3.11,3.11,0,0,1-5.5,1.64Z" transform="translate(-26.85 -9.16)"/><path class="cls-7" d="M345.54,275.56a3.11,3.11,0,0,1,4.37.45h0a3.11,3.11,0,0,1-.45,4.37h0a3.11,3.11,0,0,1-4.37-.45h0A3.11,3.11,0,0,1,345.54,275.56Z" transform="translate(-26.85 -9.16)"/><path class="cls-7" d="M388.68,328.62a3.11,3.11,0,0,1,4.37.45h0a3.11,3.11,0,0,1-.45,4.37h0a3.11,3.11,0,0,1-4.37-.45h0A3.11,3.11,0,0,1,388.68,328.62Zm-10.79-13.27a3.11,3.11,0,0,1,4.37.45h0a3.11,3.11,0,0,1-.45,4.37h0a3.11,3.11,0,0,1-4.37-.45h0A3.11,3.11,0,0,1,377.89,315.35Zm-10.78-13.26a3.11,3.11,0,0,1,4.37.45h0a3.11,3.11,0,0,1-.45,4.37h0a3.11,3.11,0,0,1-4.37-.45h0A3.11,3.11,0,0,1,367.11,302.09Zm-10.78-13.26a3.11,3.11,0,0,1,4.37.45h0a3.11,3.11,0,0,1-.45,4.37h0a3.11,3.11,0,0,1-4.37-.45h0A3.11,3.11,0,0,1,356.32,288.82Z" transform="translate(-26.85 -9.16)"/><path class="cls-7" d="M399,346.25a3.11,3.11,0,0,1,2.73-5.05,3.22,3.22,0,0,1,2.77,3.41,3.11,3.11,0,0,1-5.5,1.64Z" transform="translate(-26.85 -9.16)"/><path class="cls-7" d="M319.46,258.62l83.68,102.93c.35-.75.67-1.49,1-2.24L321.86,258.09C321.06,258.27,320.26,258.43,319.46,258.62Z" transform="translate(-26.85 -9.16)"/><path class="cls-7" d="M163.45,356.68A256.83,256.83,0,0,0,125,430.07a55.77,55.77,0,0,1,5.38,5.73c.33.41.64.82,1,1.24a239.28,239.28,0,0,1,39.86-80.19C168.59,356.72,166,356.67,163.45,356.68Z" transform="translate(-26.85 -9.16)"/><path class="cls-7" d="M276.75,486.68a239.28,239.28,0,0,1-86.63,22.65c.34.4.69.78,1,1.19a55.79,55.79,0,0,1,4.53,6.47,256.83,256.83,0,0,0,79.67-22.67C275.87,491.78,276.35,489.24,276.75,486.68Z" transform="translate(-26.85 -9.16)"/><path class="cls-6" d="M141.37,547.48C103,578.66,26.85,582,26.85,582S45.67,508.11,84,476.94c19.48-15.84,42.33-8.18,58.17,11.3S160.85,531.64,141.37,547.48Z" transform="translate(-26.85 -9.16)"/><path class="cls-8" d="M138.61,538.18C123,550.9,90.46,556.27,77.75,540.62s-.83-46.37,14.81-59.09,32.86-5.65,45.57,10S154.26,525.47,138.61,538.18Z" transform="translate(-26.85 -9.16)"/><path class="cls-3" d="M137.16,520.16c-9.26,7.53-28.74,10.9-36.27,1.64s-.25-27.64,9-35.17,17.08-1.42,24.61,7.84S146.42,512.63,137.16,520.16Z" transform="translate(-26.85 -9.16)"/><path class="cls-6" d="M128.8,447.12A15.81,15.81,0,0,0,132,460.5l35.24,43.34a15.81,15.81,0,0,0,12.44,5.88q5.18-.07,10.41-.4L131.31,437Q129.93,442.07,128.8,447.12Z" transform="translate(-26.85 -9.16)"/><g class="cls-4"><path class="cls-5" d="M136.14,443l-7.63,6.21a15.48,15.48,0,0,0,0,2.14l8.69-7.07Z" transform="translate(-26.85 -9.16)"/><path class="cls-5" d="M141.48,449.55,130.6,458.4a16.07,16.07,0,0,0,.9,1.39l11-9Z" transform="translate(-26.85 -9.16)"/><rect class="cls-5" x="134.69" y="460.43" width="14.25" height="1.64" transform="translate(-286.13 183.78) rotate(-39.13)"/><rect class="cls-5" x="140.04" y="467" width="14.25" height="1.64" transform="translate(-289.08 188.63) rotate(-39.13)"/><rect class="cls-5" x="145.38" y="473.58" width="14.26" height="1.64" transform="translate(-292.03 193.48) rotate(-39.13)"/><rect class="cls-5" x="150.72" y="480.15" width="14.26" height="1.64" transform="translate(-294.98 198.33) rotate(-39.13)"/><rect class="cls-5" x="156.07" y="486.72" width="14.26" height="1.64" transform="matrix(0.78, -0.63, 0.63, 0.78, -297.92, 203.17)"/><rect class="cls-5" x="161.41" y="493.29" width="14.26" height="1.64" transform="translate(-300.87 208.02) rotate(-39.13)"/><path class="cls-5" d="M178.9,495.55l-11,9a16.08,16.08,0,0,0,1.17,1.16l10.89-8.86Z" transform="translate(-26.85 -9.16)"/><path class="cls-5" d="M184.25,502.12l-8.7,7.07a15.47,15.47,0,0,0,2.1.41l7.64-6.21Z" transform="translate(-26.85 -9.16)"/></g><g class="cls-4"><path class="cls-3" d="M418.73,263.41c1.29,1.6,1.14,4.37-.7,8-20,39.38-63.86,90.09-121.77,137.17-46.48,37.79-93.39,66.22-132.15,81.95-3.67,1.49-6.46,1.47-7.64,0h0l10.8,13.29a15.81,15.81,0,0,0,12.44,5.88c51-.68,105.43-19.84,151.92-57.63C389.53,405,421.69,339.93,423.8,278.51A22.66,22.66,0,0,0,418.73,263.41Z" transform="translate(-26.85 -9.16)"/></g><path class="cls-7" d="M217.49,390.3C219.9,365.6,198,367.61,198,367.61l24.79-28.89-10.89-25q-6.39,5.42-12.34,11.12l8.54,11.82-20.88,33.19S215.21,413.66,217.49,390.3Z" transform="translate(-26.85 -9.16)"/><path class="cls-3" d="M153.55,195.78l139.74-11.85c-1,18.8-2.37,43.36,6.55,64.36-17.64,21.2-85.62,63.08-111.18,64.43C171.2,283.11,158.25,239.11,153.55,195.78Z" transform="translate(-26.85 -9.16)"/><path class="cls-9" d="M299.84,248.29,188.66,312.72l14,25.28-24.73,30.43s22.47,46.87,27.55,23.95c5.37-24.23-16.57-24.87-16.57-24.87L217,341.81l-8.21-27.52s40.27-27.92,82.5-49.55l1.5,1.87q7.45-2.69,14.94-4.87Z" transform="translate(-26.85 -9.16)"/><path class="cls-2" d="M293.29,183.93S302.6,42.1,191.6,75.81c0,0-35.44,41.88-38,120C247.17,220.07,293.29,183.93,293.29,183.93Z" transform="translate(-26.85 -9.16)"/><path class="cls-9" d="M283,9.16c10.38,39.65,16.16,96-100,102l-1.4,30.14s-13.14-10-15.16,4.25,14.26,7.27,14.26,7.27-12.88,26.6-27.09,42.93c-.85,1-61.78-123.86,1.44-130.17,0,0,2.7-31.48,46.82-36.82C242.09,23.93,262.64,60.8,283,9.16Z" transform="translate(-26.85 -9.16)"/><path class="cls-10" d="M228.47,164.22a258.85,258.85,0,0,1,41-6.79s2.85,22.2-16.9,25.47C230.82,186.5,228.47,164.22,228.47,164.22Z" transform="translate(-26.85 -9.16)"/><ellipse class="cls-9" cx="215.39" cy="138.51" rx="4.92" ry="10.69" transform="translate(-53.57 45.91) rotate(-13.73)"/><ellipse class="cls-9" cx="271.42" cy="124.82" rx="4.92" ry="10.69" transform="translate(-48.72 58.82) rotate(-13.73)"/><g class="cls-4"><path class="cls-5" d="M170.14,212.27C227,268.87,274.7,284.45,277,284.79c3,.43,8.88,1.75,8.13,4.5-.38,1.4-1.38,1.88-3.27,1.76,1.2.46,2.44,1.08,2.36,2.4s-2.18,2.12-3.52,2.07a2,2,0,0,0-.35,0,2,2,0,0,1,.35,0,2.94,2.94,0,0,1,2.36,2.52c-.07,1.42-2,1.87-3.37,1.74,1.2.45,2.06,1.15,2,2.46-.16,2.77-4.61,2.38-8.63,2-6.13-.24-61.83-15-113.47-80.15Z" transform="translate(-26.85 -9.16)"/></g><path class="cls-2" d="M170.05,212.19c57.32,56.15,105.12,71.36,107.44,71.68,3,.4,8.9,1.68,8.17,4.43-.37,1.4-1.36,1.89-3.25,1.79,1.2.45,2.45,1.06,2.38,2.39s-2.16,2.14-3.5,2.1a2,2,0,0,0-.35,0,2,2,0,0,1,.35,0,2.93,2.93,0,0,1,2.38,2.51c-.06,1.42-2,1.88-3.36,1.77,1.2.44,2.07,1.13,2,2.45-.14,2.77-5.41,1.51-8.55.72-2.51-.63-52.6-16.27-114.15-77.94Z" transform="translate(-26.85 -9.16)"/><path class="cls-3" d="M170.05,212.19,159.6,224.07c4.5,4.51,8.94,8.75,13.3,12.78l10-12.63C178.67,220.43,174.39,216.44,170.05,212.19Z" transform="translate(-26.85 -9.16)"/><g class="cls-4"><path class="cls-3" d="M282.46,200.19l4,4.19-2.08,6.8s4.68,38.75-41.37,49.18l-13.85-10.25,10.67-12.27c38.83.28,37.47-24.06,37.47-24.06l-6-4.92,1.16-4.65Z" transform="translate(-26.85 -9.16)"/></g><path class="cls-9" d="M282.46,200.19l4,4.19-2.08,6.8s4.4,35.24-41.66,45.67l-13.85-10.25,10.67-12.27c38.83.28,37.75-20.54,37.75-20.54l-6-4.92,1.16-4.65Z" transform="translate(-26.85 -9.16)"/></g></g></svg>